<svg width="224" height="116" viewBox="0 0 224 116" fill="none" xmlns="http://www.w3.org/2000/svg">
    <path d="M3 62V15.4545H23.1818C26.7273 15.4545 29.7045 15.9318 32.1136 16.8864C34.5379 17.8409 36.3636 19.1894 37.5909 20.9318C38.8333 22.6742 39.4545 24.7273 39.4545 27.0909C39.4545 28.803 39.0758 30.3636 38.3182 31.7727C37.5758 33.1818 36.5303 34.3636 35.1818 35.3182C33.8333 36.2576 32.2576 36.9091 30.4545 37.2727V37.7273C32.4545 37.803 34.2727 38.3106 35.9091 39.25C37.5455 40.1742 38.8485 41.4545 39.8182 43.0909C40.7879 44.7121 41.2727 46.6212 41.2727 48.8182C41.2727 51.3636 40.6061 53.6288 39.2727 55.6136C37.9545 57.5985 36.0758 59.1591 33.6364 60.2955C31.197 61.4318 28.2879 62 24.9091 62H3ZM15.6364 51.9091H21.5455C23.6667 51.9091 25.2576 51.5152 26.3182 50.7273C27.3788 49.9242 27.9091 48.7424 27.9091 47.1818C27.9091 46.0909 27.6591 45.1667 27.1591 44.4091C26.6591 43.6515 25.947 43.0758 25.0227 42.6818C24.1136 42.2879 23.0152 42.0909 21.7273 42.0909H15.6364V51.9091ZM15.6364 34.2727H20.8182C21.9242 34.2727 22.9015 34.0985 23.75 33.75C24.5985 33.4015 25.2576 32.9015 25.7273 32.25C26.2121 31.5833 26.4545 30.7727 26.4545 29.8182C26.4545 28.3788 25.9394 27.2803 24.9091 26.5227C23.8788 25.75 22.5758 25.3636 21 25.3636H15.6364V34.2727ZM45.9318 62V27.0909H58.1136V33.7273H58.4773C59.1136 31.2727 60.1212 29.4773 61.5 28.3409C62.8939 27.2045 64.5227 26.6364 66.3864 26.6364C66.9318 26.6364 67.4697 26.6818 68 26.7727C68.5455 26.8485 69.0682 26.9621 69.5682 27.1136V37.8182C68.947 37.6061 68.1818 37.447 67.2727 37.3409C66.3636 37.2348 65.5833 37.1818 64.9318 37.1818C63.7045 37.1818 62.5985 37.4621 61.6136 38.0227C60.6439 38.5682 59.8788 39.3409 59.3182 40.3409C58.7576 41.3258 58.4773 42.4848 58.4773 43.8182V62H45.9318ZM81.7841 62.5455C79.5568 62.5455 77.5871 62.1818 75.875 61.4545C74.178 60.7121 72.8447 59.5909 71.875 58.0909C70.9053 56.5909 70.4205 54.6818 70.4205 52.3636C70.4205 50.4545 70.7462 48.8258 71.3977 47.4773C72.0492 46.1136 72.9583 45 74.125 44.1364C75.2917 43.2727 76.6477 42.6136 78.1932 42.1591C79.7538 41.7045 81.4356 41.4091 83.2386 41.2727C85.1932 41.1212 86.7614 40.9394 87.9432 40.7273C89.1402 40.5 90.0038 40.1894 90.5341 39.7955C91.0644 39.3864 91.3295 38.8485 91.3295 38.1818V38.0909C91.3295 37.1818 90.9811 36.4848 90.2841 36C89.5871 35.5152 88.6932 35.2727 87.6023 35.2727C86.4053 35.2727 85.428 35.5379 84.6705 36.0682C83.928 36.5833 83.4811 37.3788 83.3295 38.4545H71.7841C71.9356 36.3333 72.6098 34.3788 73.8068 32.5909C75.0189 30.7879 76.7841 29.3485 79.1023 28.2727C81.4205 27.1818 84.3144 26.6364 87.7841 26.6364C90.2841 26.6364 92.5265 26.9318 94.5114 27.5227C96.4962 28.0985 98.1856 28.9091 99.5795 29.9545C100.973 30.9848 102.034 32.197 102.761 33.5909C103.504 34.9697 103.875 36.4697 103.875 38.0909V62H92.1477V57.0909H91.875C91.178 58.3939 90.3295 59.447 89.3295 60.25C88.3447 61.053 87.2159 61.6364 85.9432 62C84.6856 62.3636 83.2992 62.5455 81.7841 62.5455ZM85.875 54.6364C86.8295 54.6364 87.7235 54.4394 88.5568 54.0455C89.4053 53.6515 90.0947 53.0833 90.625 52.3409C91.1553 51.5985 91.4205 50.697 91.4205 49.6364V46.7273C91.0871 46.8636 90.7311 46.9924 90.3523 47.1136C89.9886 47.2348 89.5947 47.3485 89.1705 47.4545C88.7614 47.5606 88.322 47.6591 87.8523 47.75C87.3977 47.8409 86.9205 47.9242 86.4205 48C85.4508 48.1515 84.6553 48.4015 84.0341 48.75C83.428 49.0833 82.9735 49.5 82.6705 50C82.3826 50.4848 82.2386 51.0303 82.2386 51.6364C82.2386 52.6061 82.5795 53.3485 83.2614 53.8636C83.9432 54.3788 84.8144 54.6364 85.875 54.6364ZM122.506 62.4545C120.021 62.4545 117.733 61.803 115.642 60.5C113.566 59.197 111.9 57.2197 110.642 54.5682C109.4 51.9167 108.778 48.5758 108.778 44.5455C108.778 40.3333 109.43 36.9091 110.733 34.2727C112.051 31.6364 113.748 29.7045 115.824 28.4773C117.915 27.25 120.112 26.6364 122.415 26.6364C124.142 26.6364 125.657 26.9394 126.96 27.5455C128.263 28.1364 129.354 28.9318 130.233 29.9318C131.112 30.9167 131.778 32 132.233 33.1818H132.415V15.4545H144.96V62H132.506V56.2727H132.233C131.748 57.4545 131.051 58.5152 130.142 59.4545C129.248 60.3788 128.157 61.1136 126.869 61.6591C125.597 62.1894 124.142 62.4545 122.506 62.4545ZM127.142 52.8182C128.294 52.8182 129.278 52.4848 130.097 51.8182C130.93 51.1364 131.566 50.1818 132.006 48.9545C132.46 47.7121 132.688 46.2424 132.688 44.5455C132.688 42.8182 132.46 41.3409 132.006 40.1136C131.566 38.8712 130.93 37.9242 130.097 37.2727C129.278 36.6061 128.294 36.2727 127.142 36.2727C125.991 36.2727 125.006 36.6061 124.188 37.2727C123.384 37.9242 122.763 38.8712 122.324 40.1136C121.9 41.3409 121.688 42.8182 121.688 44.5455C121.688 46.2727 121.9 47.7576 122.324 49C122.763 50.2273 123.384 51.1742 124.188 51.8409C125.006 52.4924 125.991 52.8182 127.142 52.8182Z" fill="url(#paint0_linear_8_336)"/>
    <path d="M2.25 104V69.0909H17.3182C19.9091 69.0909 22.1761 69.5625 24.1193 70.5057C26.0625 71.4489 27.5739 72.8068 28.6534 74.5795C29.733 76.3523 30.2727 78.4773 30.2727 80.9545C30.2727 83.4545 29.7159 85.5625 28.6023 87.2784C27.5 88.9943 25.9489 90.2898 23.9489 91.1648C21.9602 92.0398 19.6364 92.4773 16.9773 92.4773H7.97727V85.1136H15.0682C16.1818 85.1136 17.1307 84.9773 17.9148 84.7045C18.7102 84.4205 19.3182 83.9716 19.7386 83.358C20.1705 82.7443 20.3864 81.9432 20.3864 80.9545C20.3864 79.9545 20.1705 79.142 19.7386 78.517C19.3182 77.8807 18.7102 77.4148 17.9148 77.1193C17.1307 76.8125 16.1818 76.6591 15.0682 76.6591H11.7273V104H2.25ZM22.7045 87.9773L31.4318 104H21.1364L12.6136 87.9773H22.7045ZM46.4318 104.477C43.6364 104.477 41.2273 103.943 39.2045 102.875C37.1932 101.795 35.642 100.25 34.5511 98.2386C33.4716 96.2159 32.9318 93.7955 32.9318 90.9773C32.9318 88.2727 33.4773 85.9091 34.5682 83.8864C35.6591 81.8636 37.1989 80.2898 39.1875 79.1648C41.1761 78.0398 43.5227 77.4773 46.2273 77.4773C48.2045 77.4773 49.9943 77.7841 51.5966 78.3977C53.1989 79.0114 54.5682 79.9034 55.7045 81.0739C56.8409 82.233 57.7159 83.642 58.3295 85.3011C58.9432 86.9602 59.25 88.8295 59.25 90.9091V93.0909H35.8636V87.9091H50.5909C50.5795 87.1591 50.3864 86.5 50.0114 85.9318C49.6477 85.3523 49.1534 84.9034 48.5284 84.5852C47.9148 84.2557 47.2159 84.0909 46.4318 84.0909C45.6705 84.0909 44.9716 84.2557 44.3352 84.5852C43.6989 84.9034 43.1875 85.3466 42.8011 85.9148C42.4261 86.483 42.2273 87.1477 42.2045 87.9091V93.5C42.2045 94.3409 42.3807 95.0909 42.733 95.75C43.0852 96.4091 43.5909 96.9261 44.25 97.3011C44.9091 97.6761 45.7045 97.8636 46.6364 97.8636C47.2841 97.8636 47.875 97.7727 48.4091 97.5909C48.9545 97.4091 49.4205 97.1477 49.8068 96.8068C50.1932 96.4545 50.4773 96.0341 50.6591 95.5455H59.25C58.9545 97.3636 58.2557 98.9432 57.1534 100.284C56.0511 101.614 54.5909 102.648 52.7727 103.386C50.9659 104.114 48.8523 104.477 46.4318 104.477ZM68.1605 113.818C67.081 113.818 66.0526 113.733 65.0753 113.562C64.098 113.403 63.2401 113.182 62.5014 112.898L64.5469 106.216C65.3196 106.489 66.0241 106.665 66.6605 106.744C67.3082 106.824 67.8594 106.778 68.3139 106.608C68.7798 106.438 69.1151 106.114 69.3196 105.636L69.5241 105.159L60.3196 77.8182H70.1378L74.3651 95.9545H74.6378L78.9332 77.8182H88.8196L79.2741 106.182C78.7969 107.625 78.1037 108.92 77.1946 110.068C76.2969 111.227 75.1151 112.142 73.6491 112.812C72.1832 113.483 70.3537 113.818 68.1605 113.818ZM100.905 89.2727V104H91.4957V77.8182H100.428V82.7955H100.7C101.268 81.1364 102.268 79.8352 103.7 78.892C105.143 77.9489 106.825 77.4773 108.746 77.4773C110.598 77.4773 112.206 77.9034 113.57 78.7557C114.945 79.5966 116.007 80.7557 116.757 82.233C117.518 83.7102 117.893 85.3977 117.882 87.2955V104H108.473V89.2727C108.484 87.9773 108.155 86.9602 107.484 86.2216C106.825 85.483 105.905 85.1136 104.723 85.1136C103.95 85.1136 103.274 85.2841 102.695 85.625C102.126 85.9545 101.689 86.4318 101.382 87.0568C101.075 87.6705 100.916 88.4091 100.905 89.2727ZM135.141 104.477C132.3 104.477 129.868 103.915 127.845 102.79C125.822 101.653 124.271 100.074 123.192 98.0511C122.112 96.017 121.572 93.6591 121.572 90.9773C121.572 88.2955 122.112 85.9432 123.192 83.9205C124.271 81.8864 125.822 80.3068 127.845 79.1818C129.868 78.0455 132.3 77.4773 135.141 77.4773C137.982 77.4773 140.413 78.0455 142.436 79.1818C144.459 80.3068 146.01 81.8864 147.089 83.9205C148.169 85.9432 148.709 88.2955 148.709 90.9773C148.709 93.6591 148.169 96.017 147.089 98.0511C146.01 100.074 144.459 101.653 142.436 102.79C140.413 103.915 137.982 104.477 135.141 104.477ZM135.209 97.5227C136.004 97.5227 136.692 97.2557 137.271 96.7216C137.851 96.1875 138.3 95.4261 138.618 94.4375C138.936 93.4489 139.095 92.2727 139.095 90.9091C139.095 89.5341 138.936 88.358 138.618 87.3807C138.3 86.392 137.851 85.6307 137.271 85.0966C136.692 84.5625 136.004 84.2955 135.209 84.2955C134.368 84.2955 133.646 84.5625 133.044 85.0966C132.442 85.6307 131.982 86.392 131.663 87.3807C131.345 88.358 131.186 89.5341 131.186 90.9091C131.186 92.2727 131.345 93.4489 131.663 94.4375C131.982 95.4261 132.442 96.1875 133.044 96.7216C133.646 97.2557 134.368 97.5227 135.209 97.5227ZM161.936 69.0909V104H152.527V69.0909H161.936ZM176.207 104.341C174.344 104.341 172.628 103.852 171.06 102.875C169.503 101.898 168.253 100.415 167.31 98.4261C166.378 96.4375 165.912 93.9318 165.912 90.9091C165.912 87.75 166.401 85.1818 167.378 83.2045C168.366 81.2273 169.639 79.7784 171.196 78.858C172.764 77.9375 174.412 77.4773 176.139 77.4773C177.435 77.4773 178.571 77.7045 179.548 78.1591C180.526 78.6023 181.344 79.1989 182.003 79.9489C182.662 80.6875 183.162 81.5 183.503 82.3864H183.639V69.0909H193.048V104H183.707V99.7045H183.503C183.139 100.591 182.616 101.386 181.935 102.091C181.264 102.784 180.446 103.335 179.48 103.744C178.526 104.142 177.435 104.341 176.207 104.341ZM179.685 97.1136C180.548 97.1136 181.287 96.8636 181.901 96.3636C182.526 95.8523 183.003 95.1364 183.332 94.2159C183.673 93.2841 183.844 92.1818 183.844 90.9091C183.844 89.6136 183.673 88.5057 183.332 87.5852C183.003 86.6534 182.526 85.9432 181.901 85.4545C181.287 84.9545 180.548 84.7045 179.685 84.7045C178.821 84.7045 178.082 84.9545 177.469 85.4545C176.866 85.9432 176.401 86.6534 176.071 87.5852C175.753 88.5057 175.594 89.6136 175.594 90.9091C175.594 92.2045 175.753 93.3182 176.071 94.25C176.401 95.1705 176.866 95.8807 177.469 96.3807C178.082 96.8693 178.821 97.1136 179.685 97.1136ZM221.599 86.3409H212.94C212.895 85.8068 212.707 85.3466 212.378 84.9602C212.048 84.5739 211.622 84.2784 211.099 84.0739C210.588 83.858 210.02 83.75 209.395 83.75C208.588 83.75 207.895 83.8977 207.315 84.1932C206.736 84.4886 206.452 84.9091 206.463 85.4545C206.452 85.8409 206.616 86.1989 206.957 86.5284C207.31 86.858 207.986 87.1136 208.986 87.2955L214.304 88.25C216.986 88.7386 218.98 89.5625 220.287 90.7216C221.605 91.8693 222.27 93.4091 222.281 95.3409C222.27 97.2045 221.713 98.8239 220.611 100.199C219.52 101.562 218.026 102.619 216.128 103.369C214.241 104.108 212.088 104.477 209.668 104.477C205.668 104.477 202.537 103.659 200.276 102.023C198.026 100.386 196.77 98.2273 196.509 95.5455H205.849C205.974 96.375 206.384 97.017 207.077 97.4716C207.781 97.9148 208.668 98.1364 209.736 98.1364C210.599 98.1364 211.31 97.9886 211.866 97.6932C212.435 97.3977 212.724 96.9773 212.736 96.4318C212.724 95.9318 212.474 95.5341 211.986 95.2386C211.509 94.9432 210.759 94.7045 209.736 94.5227L205.099 93.7045C202.429 93.2386 200.429 92.3523 199.099 91.0455C197.77 89.7386 197.111 88.0568 197.122 86C197.111 84.1818 197.588 82.642 198.554 81.3807C199.531 80.108 200.923 79.142 202.73 78.483C204.548 77.8125 206.702 77.4773 209.19 77.4773C212.974 77.4773 215.957 78.2614 218.139 79.8295C220.332 81.3977 221.486 83.5682 221.599 86.3409Z" fill="white"/>
    <defs>
    <linearGradient id="paint0_linear_8_336" x1="-7.92857" y1="-2.14371e-06" x2="152.746" y2="80.7046" gradientUnits="userSpaceOnUse">
    <stop stop-color="#7300E5"/>
    <stop offset="1" stop-color="#1FA098"/>
    </linearGradient>
    </defs>
    </svg>